<svg xmlns="http://www.w3.org/2000/svg" width="80" height="24" viewBox="0 0 80 24"><g transform="translate(-161 -28)"><path fill="#fff" d="M8.96-2.3A2.238,2.238,0,0,1,7.88-.17,6.5,6.5,0,0,1,4.74.44,8.7,8.7,0,0,1,3.06.29a3.781,3.781,0,0,1-1.31-.5A2.4,2.4,0,0,1,.9-1.13,3.05,3.05,0,0,1,.6-2.56V-4.9H3.74v2.64q0,.9,1,.9a1.019,1.019,0,0,0,.75-.25,1.177,1.177,0,0,0,.25-.85V-3.7a2.33,2.33,0,0,0-.17-.84,1.872,1.872,0,0,0-.59-.78L2.14-7.64A4.051,4.051,0,0,1,1.06-8.83a3.1,3.1,0,0,1-.32-1.49v-1.4a2.48,2.48,0,0,1,1.04-2.3,6.058,6.058,0,0,1,3.12-.64,8.7,8.7,0,0,1,1.68.15,3.781,3.781,0,0,1,1.31.5,2.4,2.4,0,0,1,.85.92,3.05,3.05,0,0,1,.3,1.43V-9.8H5.9v-2.16q0-.9-1-.9a.875.875,0,0,0-1,.98v.98a3.907,3.907,0,0,0,.03.52,1.469,1.469,0,0,0,.11.4,1.19,1.19,0,0,0,.22.33,3.713,3.713,0,0,0,.36.33L7.64-6.9a3.437,3.437,0,0,1,.99,1.2,3.728,3.728,0,0,1,.33,1.64ZM15.7,0V-6.84H13.78V0h-3.4V-14.24h3.4V-8.8H15.7v-5.44h3.38V0Zm4.72-11.68a2.765,2.765,0,0,1,.34-1.42,2.513,2.513,0,0,1,.93-.92,4.386,4.386,0,0,1,1.4-.49,9.617,9.617,0,0,1,1.75-.15,9.335,9.335,0,0,1,1.72.15,4.233,4.233,0,0,1,1.39.5,2.617,2.617,0,0,1,.93.92,2.752,2.752,0,0,1,.34,1.43v9.1a2.752,2.752,0,0,1-.34,1.43,2.617,2.617,0,0,1-.93.92,4.232,4.232,0,0,1-1.39.5,9.335,9.335,0,0,1-1.72.15A9.617,9.617,0,0,1,23.09.29a4.386,4.386,0,0,1-1.4-.49,2.513,2.513,0,0,1-.93-.92,2.765,2.765,0,0,1-.34-1.42Zm5.42-.28q0-.9-1-.9t-1,.9v9.7q0,.9,1,.9t1-.9Zm15.04-2.28H44.3v11.8a2.352,2.352,0,0,1-.34,1.28,2.737,2.737,0,0,1-.92.89,4.452,4.452,0,0,1-1.35.52,7.545,7.545,0,0,1-1.63.17,4.945,4.945,0,0,1-1.49-.2,3.974,3.974,0,0,1-1.17-.6,4.476,4.476,0,0,1-1.23.6,5.07,5.07,0,0,1-1.49.2A7.408,7.408,0,0,1,33.06.25a4.329,4.329,0,0,1-1.33-.52,2.674,2.674,0,0,1-.9-.89,2.407,2.407,0,0,1-.33-1.28v-11.8h3.4V-2.36a.955.955,0,0,0,.21.68.985.985,0,0,0,.73.22.87.87,0,0,0,.7-.24,1.141,1.141,0,0,0,.2-.74v-11.8h3.34v12a.691.691,0,0,0,.27.56.94.94,0,0,0,.61.22.953.953,0,0,0,.71-.22.955.955,0,0,0,.21-.68Zm9.24,2.56a2.765,2.765,0,0,1,.34-1.42,2.513,2.513,0,0,1,.93-.92,4.386,4.386,0,0,1,1.4-.49,9.617,9.617,0,0,1,1.75-.15,9.335,9.335,0,0,1,1.72.15,4.233,4.233,0,0,1,1.39.5,2.617,2.617,0,0,1,.93.92,2.752,2.752,0,0,1,.34,1.43v9.1a2.752,2.752,0,0,1-.34,1.43,2.617,2.617,0,0,1-.93.92,4.232,4.232,0,0,1-1.39.5,9.335,9.335,0,0,1-1.72.15A9.617,9.617,0,0,1,52.79.29a4.386,4.386,0,0,1-1.4-.49,2.513,2.513,0,0,1-.93-.92,2.765,2.765,0,0,1-.34-1.42Zm5.42-.28q0-.9-1-.9t-1,.9v9.7q0,.9,1,.9t1-.9ZM60.26,0V-14.24H67.6v1.94H63.66v3.74h3.82v1.88H63.66V0Zm8.38,0V-14.24h7.34v1.94H72.04v3.74h3.82v1.88H72.04V0Z" transform="translate(163.4 46.66)"/><rect width="80" height="24" transform="translate(161 28)" fill="red" opacity="0"/></g></svg>